<svg version="1" xmlns="http://www.w3.org/2000/svg" width="401.333" height="401.333" viewBox="0 0 301.000000 301.000000"><path d="M142.3 44.1c-2.3.4-6.6 1.9-9.5 3.3-30.8 14.6-31 59.4-.3 74.5 3.4 1.7 7.2 3.1 8.3 3.1 3.6 0 3.3 1.7-.3 2.3-5.9 1-14.3 5.6-19.8 11-5.9 5.8-10.8 17.8-11.2 27.2-.8 25.1 18.5 44.1 43.8 43 30.9-1.3 48.9-34.8 33.5-62.2-5.2-9.3-19-19.3-26.5-19.3-3.3 0-2.1-1.6 1.8-2.4 5.2-1 13.2-5.5 17.7-9.9 8.1-7.9 12.3-17.7 12.4-29.1.2-19.6-11-35-29.7-40.8-4.1-1.3-15.1-1.7-20.2-.7zM109.9 256.4c-.1.1-.2 1.6-.4 3.3l-.3 3.3 8.2.1c31.5.2 74.8-.1 75.4-.5.5-.3.7-1.8.4-3.4l-.4-2.8-41.4-.1c-22.8 0-41.4 0-41.5.1z"/></svg>